<?xml version="1.0" standalone="no"?>
<!DOCTYPE svg PUBLIC "-//W3C//DTD SVG 20010904//EN"
 "http://www.w3.org/TR/2001/REC-SVG-20010904/DTD/svg10.dtd">
<svg version="1.0" xmlns="http://www.w3.org/2000/svg"
 width="600.000000pt" height="542.000000pt" viewBox="0 0 600.000000 542.000000"
 preserveAspectRatio="xMidYMid meet">
<g transform="translate(0.000000,542.000000) scale(0.100000,-0.100000)"
fill="#000000" stroke="none">
<path d="M1584 4086 c-10 -8 -19 -20 -19 -27 0 -7 -6 -14 -14 -17 -9 -3 -11 0
-6 8 5 9 4 11 -4 6 -6 -4 -9 -12 -6 -17 4 -5 -9 -27 -27 -48 -28 -34 -34 -37
-44 -23 -10 14 -11 12 -9 -11 2 -20 -11 -49 -49 -105 -55 -81 -79 -123 -134
-242 -25 -55 -78 -221 -87 -275 -4 -22 -9 -47 -12 -55 -3 -8 -5 -25 -4 -38 2
-13 -2 -29 -8 -36 -9 -11 -12 -152 -8 -438 0 -16 4 -25 10 -21 6 4 8 -2 5 -14
-5 -18 4 -57 47 -215 8 -31 29 -87 46 -124 16 -37 28 -73 25 -80 -3 -8 0 -16
6 -20 7 -5 8 -2 3 6 -5 9 -4 11 4 6 6 -4 9 -12 6 -17 -4 -5 1 -16 10 -25 9 -9
13 -24 10 -32 -3 -9 -3 -13 1 -10 8 9 36 -26 55 -69 8 -18 18 -33 23 -33 4 0
5 -7 2 -16 -4 -10 -2 -13 6 -8 7 5 9 2 5 -9 -4 -12 -2 -14 11 -10 9 3 14 3 10
-2 -4 -4 0 -14 8 -22 8 -8 12 -19 9 -24 -4 -5 2 -6 12 -2 17 6 17 6 0 -14 -12
-14 -15 -23 -7 -28 6 -3 10 -3 9 2 -5 26 4 24 31 -7 16 -19 30 -39 30 -44 0
-5 3 -7 6 -4 8 9 80 -73 76 -86 -2 -6 0 -8 4 -3 11 10 75 -54 67 -67 -3 -6 -3
-8 2 -4 4 4 25 -6 46 -23 22 -17 39 -27 39 -23 0 4 11 -5 25 -20 13 -14 29
-26 34 -26 6 0 14 -6 18 -13 4 -7 23 -19 41 -27 25 -10 30 -15 20 -22 -9 -6
-6 -7 10 -3 12 3 22 2 22 -2 0 -5 22 -20 49 -34 27 -13 47 -27 45 -31 -2 -3 6
-4 18 -1 19 4 21 3 8 -7 -13 -10 -13 -11 3 -6 23 7 53 -4 36 -14 -8 -5 -3 -8
12 -8 23 0 37 -3 69 -14 83 -30 108 -38 123 -38 10 0 16 -4 13 -9 -3 -4 2 -8
12 -8 48 0 73 -4 69 -10 -3 -5 11 -9 31 -11 21 -1 98 -8 172 -14 147 -12 337
-1 438 26 28 8 50 10 46 5 -3 -5 0 -9 5 -9 6 0 11 4 11 9 0 5 17 13 38 18 32
8 41 7 49 -6 10 -14 11 -14 10 2 -2 18 42 40 102 52 13 2 31 11 40 19 12 11
21 12 35 4 14 -8 17 -7 12 1 -4 6 -1 11 8 11 8 0 21 6 28 13 23 22 98 67 98
60 0 -5 4 -3 8 3 10 16 124 87 139 87 7 0 10 4 7 8 -2 4 6 13 18 20 13 7 43
31 66 53 24 23 48 40 54 38 5 -1 7 2 3 8 -3 5 1 13 9 16 9 3 13 10 10 16 -3 5
17 -13 46 -41 32 -31 49 -55 44 -62 -4 -8 -3 -9 4 -5 7 4 60 -41 134 -116 68
-67 127 -121 131 -120 5 1 11 -6 14 -17 3 -11 16 -27 29 -36 14 -9 22 -21 18
-27 -4 -6 -3 -8 4 -4 6 3 17 -2 24 -12 16 -23 106 -102 116 -102 4 0 33 25 64
55 31 30 53 55 50 55 -4 0 6 11 22 25 16 14 25 25 21 25 -4 0 0 9 10 20 15 16
21 18 34 7 14 -10 14 -10 3 4 -13 17 -7 49 9 49 5 0 8 6 6 13 -1 6 4 11 11 9
8 -1 11 1 8 6 -6 11 30 86 50 103 8 6 14 17 14 25 0 7 13 38 29 68 16 31 25
53 20 50 -4 -2 -2 8 6 23 8 15 15 34 15 41 0 7 4 11 8 8 4 -2 8 3 9 12 1 24
10 58 29 114 17 52 18 58 34 205 16 144 17 228 3 362 -7 68 -10 128 -6 134 3
6 1 7 -4 4 -7 -4 -13 8 -16 31 -3 20 -10 55 -17 77 -6 22 -12 50 -13 62 0 12
-5 19 -10 16 -5 -3 -6 4 -2 17 5 15 4 20 -4 16 -6 -4 -11 0 -11 9 0 33 -109
258 -134 276 -5 4 -6 11 -2 17 3 6 0 14 -7 19 -7 4 -23 25 -36 46 -12 20 -26
37 -31 37 -5 0 -11 8 -15 19 -3 10 -13 28 -23 38 -9 11 -44 51 -77 88 -33 37
-59 72 -57 77 1 5 -1 7 -6 4 -12 -7 -63 40 -60 55 2 9 -5 13 -18 11 -12 -2
-24 4 -28 13 -3 8 -17 20 -31 25 -14 5 -24 15 -23 22 2 7 -5 12 -14 10 -10 -2
-18 2 -18 8 0 5 -7 10 -15 10 -8 0 -15 5 -15 11 0 5 -4 7 -10 4 -5 -3 -10 -1
-10 4 0 6 -17 18 -37 26 -21 9 -44 22 -53 29 -8 8 -41 25 -73 38 -31 13 -54
28 -50 33 5 4 3 5 -3 2 -6 -3 -34 5 -63 19 -29 13 -61 24 -71 24 -11 0 -23 6
-27 13 -4 6 -21 13 -38 13 -16 1 -39 4 -50 7 -118 31 -253 48 -387 48 -156 -1
-219 -8 -358 -42 -47 -12 -97 -22 -112 -23 -14 0 -24 -4 -21 -8 2 -5 -4 -8
-15 -8 -10 0 -42 -11 -71 -25 -28 -14 -57 -22 -64 -19 -7 4 -9 3 -4 -1 4 -5
-11 -15 -33 -22 -22 -8 -59 -26 -83 -41 -23 -16 -59 -37 -80 -47 -21 -11 -89
-61 -152 -112 -62 -51 -116 -89 -120 -85 -5 4 -4 1 0 -7 6 -11 4 -13 -9 -8
-10 4 -20 7 -22 7 -2 0 -4 4 -4 8 0 14 -118 131 -125 124 -4 -4 -5 -2 -3 3 1
6 -7 20 -18 31 -13 13 -20 31 -19 47 2 15 0 26 -3 26 -4 -1 -10 0 -14 1 -5 1
-17 4 -28 5 -11 1 -23 3 -26 4 -4 0 -1 8 6 16 11 13 10 14 -4 9 -9 -3 -16 -1
-16 6 0 6 -4 8 -10 5 -5 -3 -10 -1 -10 5 0 6 -4 8 -10 5 -6 -4 -7 1 -3 12 3
10 3 15 -2 11 -9 -9 -116 92 -110 103 3 4 -4 10 -14 14 -11 3 -23 15 -26 26
-4 10 -10 17 -14 15 -4 -3 -21 8 -36 24 -32 34 -43 36 -71 16z m114 -87 l81
-82 -46 -51 c-354 -394 -431 -989 -190 -1471 362 -725 1271 -956 1942 -494 39
27 92 70 119 95 l49 47 83 -86 83 -86 -82 -69 c-208 -176 -420 -281 -695 -345
-85 -19 -125 -22 -317 -22 -177 0 -236 4 -300 18 -329 75 -577 208 -796 428
-223 223 -357 469 -431 789 -30 130 -33 477 -5 613 40 199 126 407 234 569 54
82 171 226 184 227 3 1 42 -36 87 -80z m1762 -19 c362 -44 663 -191 920 -449
232 -233 367 -489 432 -814 28 -146 31 -403 5 -547 -56 -303 -194 -588 -386
-793 l-35 -37 -82 81 -83 82 55 64 c152 180 260 406 298 628 21 117 21 352 1
468 -58 328 -244 630 -514 833 -91 68 -264 159 -371 194 -185 62 -405 83 -588
56 -271 -40 -484 -134 -685 -303 l-74 -61 -82 82 -81 82 37 35 c314 297 793
452 1233 399z m-1576 -169 l79 -79 -45 -54 c-67 -80 -105 -140 -153 -241 -127
-269 -134 -555 -23 -842 89 -231 290 -451 513 -562 61 -31 196 -78 250 -88
168 -30 246 -31 391 -6 193 34 347 101 493 217 l84 66 81 -82 81 -81 -45 -40
c-75 -67 -180 -138 -275 -186 -772 -390 -1688 59 -1862 912 -24 114 -23 382 1
493 39 182 117 365 212 498 54 75 122 154 133 154 4 0 42 -36 85 -79z m82 -38
c-4 -4 -11 -1 -16 7 -16 25 -11 35 7 17 9 -9 13 -20 9 -24z m1562 -68 c167
-33 342 -106 491 -207 101 -69 262 -233 334 -339 283 -424 296 -964 33 -1404
-62 -103 -167 -232 -189 -232 -8 0 -13 6 -11 12 3 6 -28 43 -68 81 l-74 70 58
69 c157 191 238 419 238 672 0 210 -47 383 -153 557 -268 442 -809 624 -1293
437 -96 -37 -226 -114 -301 -178 l-54 -46 -83 82 -84 81 52 45 c179 158 422
272 661 310 112 18 327 13 443 -10z m-1424 -213 c-319 -392 -192 -991 259
-1216 284 -142 610 -115 847 72 25 19 50 41 56 48 8 11 29 -5 96 -71 l84 -85
-49 -42 c-382 -322 -928 -332 -1314 -23 -101 81 -150 135 -225 250 -63 97
-107 200 -141 329 -32 124 -29 355 6 488 42 159 124 315 230 435 l30 34 83
-82 83 -82 -45 -55z m155 -56 c64 -65 80 -86 69 -92 -24 -15 -79 -102 -104
-167 -30 -75 -41 -207 -25 -292 28 -155 152 -315 293 -379 40 -19 97 -39 126
-45 143 -30 314 10 433 101 l46 36 83 -84 c46 -46 82 -85 79 -87 -2 -2 -26
-21 -54 -44 -155 -126 -375 -190 -567 -163 -109 15 -207 47 -297 97 -89 49
-236 197 -285 284 -131 238 -136 499 -15 743 32 65 112 176 127 176 4 0 45
-38 91 -84z m1166 20 c113 -17 190 -40 282 -82 336 -153 562 -468 603 -843 30
-271 -67 -576 -247 -779 l-38 -42 -82 81 c-82 80 -92 94 -74 101 19 7 108 138
138 203 47 102 64 176 70 300 20 404 -249 744 -654 825 -60 12 -255 10 -312
-4 -127 -30 -272 -104 -355 -181 l-29 -27 -85 85 -85 85 77 60 c137 109 305
186 466 212 41 6 82 13 90 15 40 8 154 3 235 -9z m-920 -301 c-100 -138 -54
-334 99 -412 41 -21 65 -27 121 -27 62 0 78 4 129 33 l59 33 81 -82 81 -81
-35 -30 c-72 -61 -206 -109 -306 -109 -235 0 -452 168 -503 390 -33 143 6 319
97 438 l25 33 83 -82 c79 -78 83 -84 69 -104z m940 31 c146 -31 270 -100 380
-211 154 -155 229 -339 227 -555 -1 -166 -65 -347 -167 -471 l-45 -55 -85 84
-84 85 33 38 c43 51 82 133 101 211 77 327 -181 655 -517 658 -113 0 -265 -53
-341 -120 l-35 -30 -78 81 c-44 44 -79 84 -79 89 0 14 116 100 175 130 56 27
164 65 210 73 57 10 249 5 305 -7z m-726 -210 l173 -174 -43 -25 c-120 -69
-277 -25 -342 96 -32 62 -31 176 2 235 14 23 27 42 30 42 4 0 84 -78 180 -174z
m751 -75 c137 -57 236 -159 291 -299 18 -46 23 -77 23 -167 0 -123 -17 -187
-74 -273 -59 -91 -47 -91 -141 3 l-84 84 23 28 c33 41 56 127 48 182 -9 65
-51 145 -94 181 -44 36 -129 70 -176 70 -48 0 -132 -27 -161 -53 l-26 -22 -84
84 -84 83 27 24 c36 32 160 93 214 104 24 5 84 8 133 6 74 -3 103 -9 165 -35z
m-111 -237 c107 -31 183 -150 167 -262 -6 -44 -43 -132 -56 -132 -3 0 -84 78
-178 173 l-172 172 27 22 c52 42 129 52 212 27z"/>
<path d="M1576 4013 c-6 -14 -5 -15 5 -6 7 7 10 15 7 18 -3 3 -9 -2 -12 -12z"/>
<path d="M1619 4003 c-13 -16 -12 -17 4 -4 9 7 17 15 17 17 0 8 -8 3 -21 -13z"/>
<path d="M1490 3910 c0 -5 5 -10 11 -10 5 0 7 5 4 10 -3 6 -8 10 -11 10 -2 0
-4 -4 -4 -10z"/>
<path d="M1686 3868 c3 -5 10 -6 15 -3 13 9 11 12 -6 12 -8 0 -12 -4 -9 -9z"/>
<path d="M1606 3792 c-3 -5 1 -9 9 -9 8 0 12 4 9 9 -3 4 -7 8 -9 8 -2 0 -6 -4
-9 -8z"/>
<path d="M1455 3501 c-3 -5 -2 -12 3 -15 5 -3 9 1 9 9 0 17 -3 19 -12 6z"/>
<path d="M1526 2233 c-6 -14 -5 -15 5 -6 7 7 10 15 7 18 -3 3 -9 -2 -12 -12z"/>
<path d="M1765 2009 c-6 -8 -4 -10 5 -4 10 6 12 4 6 -11 -6 -15 -5 -17 5 -6 9
9 10 15 2 23 -8 8 -13 7 -18 -2z"/>
<path d="M3575 1927 c-11 -12 -16 -19 -10 -14 15 11 27 8 19 -5 -4 -7 -3 -10
1 -5 8 7 19 48 12 46 -1 0 -11 -10 -22 -22z"/>
<path d="M3499 1873 c-13 -16 -12 -17 4 -4 16 13 21 21 13 21 -2 0 -10 -8 -17
-17z"/>
<path d="M3435 1830 c3 -5 11 -10 16 -10 6 0 7 5 4 10 -3 6 -11 10 -16 10 -6
0 -7 -4 -4 -10z"/>
<path d="M3606 1807 c3 -10 9 -15 12 -12 3 3 0 11 -7 18 -10 9 -11 8 -5 -6z"/>
<path d="M3336 1768 c3 -5 10 -6 15 -3 13 9 11 12 -6 12 -8 0 -12 -4 -9 -9z"/>
<path d="M3296 1762 c-2 -4 4 -8 14 -8 10 0 16 4 14 8 -3 4 -9 8 -14 8 -5 0
-11 -4 -14 -8z"/>
<path d="M3175 1700 c-3 -6 1 -7 9 -4 18 7 21 14 7 14 -6 0 -13 -4 -16 -10z"/>
<path d="M3370 1636 c4 -4 16 -4 26 2 16 9 14 10 -8 9 -15 -1 -23 -6 -18 -11z"/>
<path d="M2635 3641 c-3 -5 -2 -12 3 -15 5 -3 9 1 9 9 0 17 -3 19 -12 6z"/>
<path d="M4056 3558 c3 -5 10 -6 15 -3 13 9 11 12 -6 12 -8 0 -12 -4 -9 -9z"/>
<path d="M4366 3252 c-3 -5 1 -9 9 -9 8 0 12 4 9 9 -3 4 -7 8 -9 8 -2 0 -6 -4
-9 -8z"/>
<path d="M4566 3227 c3 -10 9 -15 12 -12 3 3 0 11 -7 18 -10 9 -11 8 -5 -6z"/>
<path d="M4625 2259 c-4 -6 -5 -12 -2 -15 2 -3 7 2 10 11 7 17 1 20 -8 4z"/>
<path d="M4542 1955 c4 -4 3 -16 -3 -26 -5 -11 -7 -19 -5 -19 3 0 10 9 16 19
7 15 7 22 -2 27 -7 4 -10 4 -6 -1z"/>
<path d="M4525 1873 c3 -13 2 -23 -3 -23 -6 0 -13 -8 -16 -17 -6 -14 -4 -14
16 2 13 11 24 20 25 20 1 0 -5 9 -14 20 -15 20 -15 20 -8 -2z"/>
<path d="M4651 1813 c7 -12 15 -20 18 -17 3 2 -3 12 -13 22 -17 16 -18 16 -5
-5z"/>
<path d="M4454 1753 c3 -6 2 -14 -4 -18 -5 -3 -10 -11 -10 -16 0 -6 7 -3 16 6
14 13 14 19 4 28 -10 9 -11 9 -6 0z"/>
<path d="M4376 1634 c-3 -8 -2 -12 4 -9 13 8 13 -8 0 -21 -7 -7 -6 -11 3 -11
8 0 13 12 13 29 0 30 -10 37 -20 12z"/>
<path d="M4294 1524 c-18 -14 -18 -15 4 -4 12 6 22 13 22 15 0 8 -5 6 -26 -11z"/>
<path d="M4486 1513 c-6 -14 -5 -15 5 -6 7 7 10 15 7 18 -3 3 -9 -2 -12 -12z"/>
<path d="M1844 3788 c-4 -6 -3 -8 3 -5 13 8 36 -17 25 -28 -4 -5 -1 -5 6 -1
11 6 10 12 -4 27 -20 22 -21 22 -30 7z"/>
<path d="M1725 3771 c-3 -5 -2 -12 3 -15 5 -3 9 1 9 9 0 17 -3 19 -12 6z"/>
<path d="M1846 3753 c-6 -14 -5 -15 5 -6 7 7 10 15 7 18 -3 3 -9 -2 -12 -12z"/>
<path d="M1585 3509 c-4 -6 -5 -12 -2 -15 2 -3 7 2 10 11 7 17 1 20 -8 4z"/>
<path d="M1567 3473 c-4 -3 -7 -11 -7 -17 0 -6 5 -5 12 2 6 6 9 14 7 17 -3 3
-9 2 -12 -2z"/>
<path d="M1625 2849 c-4 -6 -5 -12 -2 -15 2 -3 7 2 10 11 7 17 1 20 -8 4z"/>
<path d="M1772 2404 c-14 -16 -5 -18 17 -5 7 5 9 11 5 14 -5 3 -15 -1 -22 -9z"/>
<path d="M1626 2357 c3 -10 9 -15 12 -12 3 3 0 11 -7 18 -10 9 -11 8 -5 -6z"/>
<path d="M3442 2168 c2 -7 -3 -12 -10 -10 -8 1 -11 -2 -7 -7 6 -11 35 -3 35 9
0 5 -5 12 -10 15 -6 4 -9 1 -8 -7z"/>
<path d="M3337 2086 c-4 -11 -5 -21 -2 -24 3 -3 5 0 5 6 0 6 7 9 15 6 8 -4 15
-1 15 6 0 6 -4 9 -9 6 -5 -4 -11 -1 -13 6 -3 7 -7 5 -11 -6z"/>
<path d="M3388 2083 c7 -3 16 -2 19 1 4 3 -2 6 -13 5 -11 0 -14 -3 -6 -6z"/>
<path d="M3186 1992 c-3 -5 1 -9 9 -9 8 0 12 4 9 9 -3 4 -7 8 -9 8 -2 0 -6 -4
-9 -8z"/>
<path d="M2975 1920 c3 -4 14 -10 25 -13 11 -3 18 -2 15 3 -3 4 -14 10 -25 13
-11 3 -18 2 -15 -3z"/>
<path d="M3147 1809 c7 -7 15 -10 18 -7 3 3 -2 9 -12 12 -14 6 -15 5 -6 -5z"/>
<path d="M3118 3683 c7 -3 16 -2 19 1 4 3 -2 6 -13 5 -11 0 -14 -3 -6 -6z"/>
<path d="M2679 3532 c11 -8 10 -11 -5 -14 -17 -3 -17 -4 2 -10 16 -4 21 -1 20
10 -2 9 -9 18 -17 20 -12 3 -12 2 0 -6z"/>
<path d="M2529 3458 c-6 -21 -5 -37 2 -32 5 3 7 9 4 14 -3 4 1 11 7 13 10 4
10 6 1 6 -7 1 -13 0 -14 -1z"/>
<path d="M2720 3416 c0 -2 8 -10 18 -17 15 -13 16 -12 3 4 -13 16 -21 21 -21
13z"/>
<path d="M4095 3369 c-4 -6 -5 -12 -2 -15 2 -3 7 2 10 11 7 17 1 20 -8 4z"/>
<path d="M4173 3277 c0 -8 6 -14 14 -14 9 0 10 4 2 14 -6 7 -12 13 -14 13 -1
0 -2 -6 -2 -13z"/>
<path d="M4416 2877 c3 -10 9 -15 12 -12 3 3 0 11 -7 18 -10 9 -11 8 -5 -6z"/>
<path d="M4372 2570 c0 -14 2 -19 5 -12 2 6 2 18 0 25 -3 6 -5 1 -5 -13z"/>
<path d="M4371 2194 c0 -11 3 -14 6 -6 3 7 2 16 -1 19 -3 4 -6 -2 -5 -13z"/>
<path d="M4341 2184 c0 -11 3 -14 6 -6 3 7 2 16 -1 19 -3 4 -6 -2 -5 -13z"/>
<path d="M4485 2109 c-4 -6 -5 -12 -2 -15 2 -3 7 2 10 11 7 17 1 20 -8 4z"/>
<path d="M4265 1959 c-4 -6 -5 -12 -2 -15 2 -3 7 2 10 11 7 17 1 20 -8 4z"/>
<path d="M4203 1834 c0 -9 4 -11 12 -4 7 5 14 9 16 7 2 -1 3 0 1 2 -7 11 -29
7 -29 -5z"/>
<path d="M4150 1766 c0 -2 7 -6 15 -10 8 -3 15 -1 15 4 0 6 -7 10 -15 10 -8 0
-15 -2 -15 -4z"/>
<path d="M4128 1725 c-3 -13 -1 -22 3 -19 5 3 9 11 9 19 0 7 6 16 13 18 7 4 6
6 -4 6 -10 1 -19 -9 -21 -24z"/>
<path d="M1959 3623 c-13 -16 -12 -17 4 -4 9 7 17 15 17 17 0 8 -8 3 -21 -13z"/>
<path d="M1974 3609 c-3 -6 -2 -15 3 -20 5 -5 9 -1 9 11 0 23 -2 24 -12 9z"/>
<path d="M2021 3611 c-10 -6 -9 -10 3 -14 8 -3 18 -2 21 3 8 13 -9 20 -24 11z"/>
<path d="M1930 3596 c0 -2 7 -7 16 -10 8 -3 12 -2 9 4 -6 10 -25 14 -25 6z"/>
<path d="M1870 3526 c0 -2 8 -10 18 -17 15 -13 16 -12 3 4 -13 16 -21 21 -21
13z"/>
<path d="M2005 3479 c-4 -6 -5 -12 -2 -15 2 -3 7 2 10 11 7 17 1 20 -8 4z"/>
<path d="M1830 3445 c-4 -25 -9 -41 -15 -60 -3 -11 1 -7 10 8 9 16 14 36 12
45 -3 9 -6 13 -7 7z"/>
<path d="M1923 2715 c0 -8 4 -12 9 -9 5 3 6 10 3 15 -9 13 -12 11 -12 -6z"/>
<path d="M2095 2419 c-4 -6 -5 -12 -2 -15 2 -3 7 2 10 11 7 17 1 20 -8 4z"/>
<path d="M1936 2372 c-3 -5 1 -9 9 -9 8 0 12 4 9 9 -3 4 -7 8 -9 8 -2 0 -6 -4
-9 -8z"/>
<path d="M1973 2363 c0 -9 4 -10 14 -2 7 6 13 12 13 14 0 1 -6 2 -13 2 -8 0
-14 -6 -14 -14z"/>
<path d="M3241 2340 c-13 -11 -18 -20 -12 -20 7 0 9 -6 5 -12 -6 -10 -4 -10 7
0 16 15 33 16 23 0 -5 -7 -3 -8 6 -3 10 6 10 10 -3 20 -12 9 -14 14 -5 23 19
19 5 13 -21 -8z"/>
<path d="M2160 2346 c0 -2 8 -10 18 -17 15 -13 16 -12 3 4 -13 16 -21 21 -21
13z"/>
<path d="M2210 2326 c0 -2 8 -10 18 -17 15 -13 16 -12 3 4 -13 16 -21 21 -21
13z"/>
<path d="M3113 2245 c0 -8 4 -12 9 -9 5 3 6 10 3 15 -9 13 -12 11 -12 -6z"/>
<path d="M3148 2253 c7 -3 16 -2 19 1 4 3 -2 6 -13 5 -11 0 -14 -3 -6 -6z"/>
<path d="M3077 2229 c7 -7 15 -10 18 -7 3 3 -2 9 -12 12 -14 6 -15 5 -6 -5z"/>
<path d="M2931 2154 c0 -11 3 -14 6 -6 3 7 2 16 -1 19 -3 4 -6 -2 -5 -13z"/>
<path d="M2171 3454 c6 -7 16 -11 21 -8 11 7 3 17 -18 20 -12 2 -13 -1 -3 -12z"/>
<path d="M2253 3355 c0 -7 6 -11 14 -8 7 3 13 6 13 8 0 2 -6 5 -13 8 -8 3 -14
-1 -14 -8z"/>
<path d="M2056 3268 c3 -5 10 -6 15 -3 13 9 11 12 -6 12 -8 0 -12 -4 -9 -9z"/>
<path d="M3005 2490 c-3 -5 -2 -10 4 -10 5 0 13 5 16 10 3 6 2 10 -4 10 -5 0
-13 -4 -16 -10z"/>
<path d="M2966 2474 c-5 -14 -4 -15 9 -4 17 14 19 20 6 20 -5 0 -12 -7 -15
-16z"/>
<path d="M2618 2263 c7 -3 16 -2 19 1 4 3 -2 6 -13 5 -11 0 -14 -3 -6 -6z"/>
<path d="M2918 3363 c7 -3 16 -2 19 1 4 3 -2 6 -13 5 -11 0 -14 -3 -6 -6z"/>
<path d="M2616 3162 c-3 -5 1 -9 9 -9 8 0 12 4 9 9 -3 4 -7 8 -9 8 -2 0 -6 -4
-9 -8z"/>
<path d="M3825 3071 c-3 -5 -2 -12 3 -15 5 -3 9 1 9 9 0 17 -3 19 -12 6z"/>
<path d="M4160 2886 c0 -2 8 -10 18 -17 15 -13 16 -12 3 4 -13 16 -21 21 -21
13z"/>
<path d="M4030 2075 c-11 -13 -10 -14 4 -9 9 3 16 10 16 15 0 13 -6 11 -20 -6z"/>
<path d="M3960 1952 c0 -4 10 -13 23 -21 22 -14 22 -14 3 8 -20 22 -26 25 -26
13z"/>
<path d="M3955 1910 c-3 -6 1 -7 9 -4 18 7 21 14 7 14 -6 0 -13 -4 -16 -10z"/>
<path d="M2296 3203 c-6 -14 -5 -15 5 -6 7 7 10 15 7 18 -3 3 -9 -2 -12 -12z"/>
<path d="M2414 3196 c1 -8 5 -18 8 -22 4 -3 5 1 4 10 -1 8 -5 18 -8 22 -4 3
-5 -1 -4 -10z"/>
<path d="M2875 2720 c3 -5 8 -10 11 -10 2 0 4 5 4 10 0 6 -5 10 -11 10 -5 0
-7 -4 -4 -10z"/>
<path d="M2965 2639 c-3 -4 2 -6 10 -5 21 3 28 13 10 13 -9 0 -18 -4 -20 -8z"/>
<path d="M2450 2615 c0 -2 6 -8 13 -14 10 -8 14 -7 14 2 0 8 -6 14 -14 14 -7
0 -13 -1 -13 -2z"/>
<path d="M2965 2611 c-3 -5 -2 -12 3 -15 5 -3 9 1 9 9 0 17 -3 19 -12 6z"/>
<path d="M3031 3130 c-10 -5 -9 -8 2 -13 7 -3 19 -2 26 3 10 5 9 8 -2 13 -7 3
-19 2 -26 -3z"/>
<path d="M3771 2966 c-9 -11 -9 -16 1 -22 7 -4 10 -4 6 1 -4 4 -3 14 3 22 6 7
9 13 6 13 -2 0 -10 -6 -16 -14z"/>
<path d="M3810 2235 c0 -2 6 -8 13 -14 10 -8 14 -7 14 2 0 8 -6 14 -14 14 -7
0 -13 -1 -13 -2z"/>
<path d="M3744 2119 c-3 -6 -2 -15 3 -20 5 -5 9 -1 9 11 0 23 -2 24 -12 9z"/>
<path d="M2526 3092 c-3 -5 1 -9 9 -9 8 0 12 4 9 9 -3 4 -7 8 -9 8 -2 0 -6 -4
-9 -8z"/>
<path d="M2525 3052 c3 -3 -1 -12 -7 -21 -8 -10 -4 -9 10 3 26 23 26 23 7 23
-8 0 -13 -3 -10 -5z"/>
<path d="M2565 3041 c-3 -5 -2 -12 3 -15 5 -3 9 1 9 9 0 17 -3 19 -12 6z"/>
<path d="M2651 2974 c6 -7 16 -11 21 -8 11 7 3 17 -18 20 -12 2 -13 -1 -3 -12z"/>
<path d="M2809 2817 c6 -8 7 -18 3 -22 -4 -5 -1 -5 6 -1 10 6 10 11 1 22 -6 8
-14 14 -16 14 -3 0 0 -6 6 -13z"/>
<path d="M2996 2815 c-11 -8 -15 -15 -9 -15 7 0 15 5 18 10 3 6 11 10 16 10 6
0 7 -5 3 -12 -4 -7 -3 -8 5 -4 11 7 6 26 -7 26 -4 0 -16 -7 -26 -15z"/>
<path d="M3228 2753 c7 -3 16 -2 19 1 4 3 -2 6 -13 5 -11 0 -14 -3 -6 -6z"/>
<path d="M3493 2687 c0 -8 6 -14 14 -14 9 0 10 4 2 14 -6 7 -12 13 -14 13 -1
0 -2 -6 -2 -13z"/>
<path d="M3686 2292 c-3 -4 4 -9 15 -9 23 -2 25 3 4 10 -8 4 -16 3 -19 -1z"/>
<path d="M3469 2363 c-13 -16 -12 -17 4 -4 16 13 21 21 13 21 -2 0 -10 -8 -17
-17z"/>
<path d="M3448 2333 c6 -2 9 -10 6 -15 -4 -7 -2 -8 5 -4 13 9 5 26 -12 25 -9
0 -8 -2 1 -6z"/>
<path d="M1743 4029 c-2 -23 3 -25 10 -4 4 8 3 16 -1 19 -4 3 -9 -4 -9 -15z"/>
<path d="M2050 3705 c13 -14 26 -25 28 -25 3 0 -5 11 -18 25 -13 14 -26 25
-28 25 -3 0 5 -11 18 -25z"/>
<path d="M1132 3040 c0 -14 2 -19 5 -12 2 6 2 18 0 25 -3 6 -5 1 -5 -13z"/>
<path d="M4776 3007 c3 -10 9 -15 12 -12 3 3 0 11 -7 18 -10 9 -11 8 -5 -6z"/>
<path d="M4775 1859 c-4 -6 -5 -12 -2 -15 2 -3 7 2 10 11 7 17 1 20 -8 4z"/>
</g>
</svg>
