<?xml version="1.0" encoding="UTF-8"?>
<svg id="Layer_1" data-name="Layer 1" xmlns="http://www.w3.org/2000/svg" viewBox="0 0 933.86 677.45">
  <defs>
    <style>
      .cls-1 {
        fill: #fff;
      }
    </style>
  </defs>
  <path d="M812.94,677.45h87.99c-.14-1.62.21-3.42,0-5-.26-1.99-1.49-5.1-1.83-7.67-5.54-41.46-11.01-83.14-17.66-124.32l-68.5,137Z"/>
  <path class="cls-1" d="M900.93,32.45v640c-.26-1.99-1.49-5.1-1.83-7.67-5.54-41.46-11.01-83.14-17.66-124.32l-68.5,137h-26s84.99-169.99,84.99-169.99l-247.47-86.03,101.48,256.01h-25s-100-251-100-251l-169.98,251h-28s172.98-255.52,172.98-255.52l-1.5-1.52-325.46,73.04,128.99,183.99h-28s-121.49-171.98-121.49-171.98l-141.49,171.98h-30s152.99-186.99,152.99-186.99L0,403.45v-37s272.98-194.99,272.98-194.99L0,140.45v-47s195.98-57.5,195.98-57.5c-51.54-1.11-103-2.47-154.6-2.42l-3.38-1.07h862.93ZM286.98,149.44l-35-106L3,116.46l283.97,32.98ZM313.61,152.31l247.34,1.13L277.98,48.45l35.63,103.86ZM593.94,379.45l23.01-202-277.98-1.99,254.97,203.99ZM244.99,470.44l331.97-74-265.97-211.99-66,285.99ZM285.97,191.45L15.02,383.95l205.95,86.5,65-278.99ZM616.09,394.31l237.84,82.13-215.97-279.99-21.87,197.86Z"/>
  <polygon points="402.97 677.45 575.94 421.93 574.44 420.41 248.98 493.45 377.97 677.45 402.97 677.45"/>
  <polygon points="0 403.45 0 677.45 57 677.45 209.98 490.46 0 403.45"/>
  <polygon points="430.97 677.45 700.95 677.45 600.94 426.45 430.97 677.45"/>
  <polygon points="786.94 677.45 871.93 507.46 624.47 421.43 725.94 677.45 786.94 677.45"/>
  <polygon points="0 140.45 0 366.45 272.98 171.46 0 140.45"/>
  <polygon points="86.99 677.45 349.97 677.45 228.48 505.46 86.99 677.45"/>
  <path d="M38,32.45H0s0,61,0,61l195.98-57.5c-51.54-1.11-103-2.47-154.6-2.42l-3.38-1.07Z"/>
  <polygon points="310.98 184.45 244.99 470.44 576.96 396.44 310.98 184.45"/>
  <polygon points="220.97 470.44 285.97 191.45 15.02 383.95 220.97 470.44"/>
  <polygon points="338.97 175.46 593.94 379.45 616.96 177.44 338.97 175.46"/>
  <polygon points="637.96 196.45 616.09 394.31 853.93 476.44 637.96 196.45"/>
  <polygon points="3 116.46 286.98 149.44 251.97 43.44 3 116.46"/>
  <polygon points="277.98 48.45 313.61 152.31 560.96 153.44 277.98 48.45"/>
</svg>