<?xml version="1.0" encoding="UTF-8"?>
<svg id="Layer_1" data-name="Layer 1" xmlns="http://www.w3.org/2000/svg" viewBox="0 0 960.34 705.06">
  <defs>
    <style>
      .cls-1 {
        fill: #fff;
      }
    </style>
  </defs>
  <path d="M120.92,677.45H32.93c.14-1.62-.21-3.42,0-5,.26-1.99,1.49-5.1,1.83-7.67,5.54-41.46,11.01-83.14,17.66-124.32l68.5,137Z"/>
  <path class="cls-1" d="M895.87,32.45l-3.38,1.07c-51.61-.04-103.06,1.31-154.6,2.42l195.98,57.5v47l-272.98,31.01,272.98,194.99v37l-209.98,87.01,152.99,186.99h-30l-141.49-171.98-121.49,171.98h-28l128.99-183.99-325.46-73.04-1.5,1.52,172.98,255.52h-28l-169.98-251-100,251h-25l101.48-256.01-247.47,86.03,84.99,169.99h-26l-68.5-137c-6.65,41.18-12.12,82.86-17.66,124.32-.34,2.57-1.57,5.69-1.83,7.67V32.45h862.93ZM930.86,116.46l-248.97-73.01-35,106,283.97-32.98ZM655.88,48.45l-282.97,104.99,247.34-1.13,35.63-103.86ZM594.89,175.46l-277.98,1.99,23.01,202,254.97-203.99ZM622.88,184.45l-265.97,211.99,331.97,74-66-285.99ZM712.89,470.44l205.95-86.5-270.95-192.49,65,278.99ZM295.91,196.45L79.93,476.44l237.84-82.13-21.87-197.86Z"/>
  <polygon points="530.89 677.45 357.92 421.93 359.42 420.41 684.88 493.45 555.89 677.45 530.89 677.45"/>
  <polygon points="933.86 403.45 933.86 677.45 876.87 677.45 723.88 490.46 933.86 403.45"/>
  <polygon points="502.9 677.45 232.92 677.45 332.92 426.45 502.9 677.45"/>
  <polygon points="146.92 677.45 61.93 507.46 309.4 421.43 207.92 677.45 146.92 677.45"/>
  <polygon points="933.86 140.45 933.86 366.45 660.88 171.46 933.86 140.45"/>
  <polygon points="846.87 677.45 583.89 677.45 705.38 505.46 846.87 677.45"/>
  <path d="M895.87,32.45h38v61l-195.98-57.5c51.54-1.11,103-2.47,154.6-2.42l3.38-1.07Z"/>
  <polygon points="622.88 184.45 688.88 470.44 356.91 396.44 622.88 184.45"/>
  <polygon points="712.89 470.44 647.89 191.45 918.84 383.95 712.89 470.44"/>
  <polygon points="594.89 175.46 339.92 379.45 316.9 177.44 594.89 175.46"/>
  <polygon points="295.91 196.45 317.77 394.31 79.93 476.44 295.91 196.45"/>
  <polygon points="930.86 116.46 646.89 149.44 681.89 43.44 930.86 116.46"/>
  <polygon points="655.88 48.45 620.25 152.31 372.91 153.44 655.88 48.45"/>
</svg>