<svg xmlns="http://www.w3.org/2000/svg" id="Layer_1" viewBox="0 0 785.92 159.04" preserveAspectRatio="xMinYMid meet">
  <defs>
    <style>
      .cls-1 {
        fill: #005568;
      }

      .cls-1, .cls-2, .cls-3, .cls-4, .cls-5, .cls-6, .cls-7, .cls-8, .cls-9, .cls-10, .cls-11, .cls-12, .cls-13 {
        stroke-width: 0px;
      }

      .cls-2 {
        fill: #c9e9eb;
      }

      .cls-14 {
        fill: #a1abae;
        stroke: #a1abae;
        stroke-miterlimit: 10;
        stroke-width: .5px;
      }

      .cls-3 {
        fill: #004053;
      }

      .cls-4 {
        fill: #aee0ea;
      }

      .cls-5 {
        fill: #ceebf0;
      }

      .cls-6 {
        fill: #0077a0;
      }

      .cls-7 {
        fill: #00b5d1;
      }

      .cls-8 {
        fill: #87d3e1;
      }

      .cls-9 {
        fill: #7ad0e2;
      }

      .cls-10 {
        fill: #008fb4;
      }

      .cls-11 {
        fill: #9ddae6;
      }

      .cls-12 {
        fill: #00769f;
      }

      .cls-13 {
        fill: #00b3dc;
      }
    </style>
  </defs>
  <g>
    <path class="cls-14" d="M297.83,131.89h2.32l3.96,21.85h-2.47l-.97-5.73h-11.64l-4.02,5.73h-2.65l15.48-21.85ZM300.27,145.78l-1.92-11.09-7.8,11.09h9.72Z"></path>
    <path class="cls-14" d="M317.88,145.16c0-3.66,1.55-7.16,4.02-9.67,2.29-2.32,5.39-3.81,8.78-3.81,3.96,0,6.61,1.95,8.04,4.65l-2.07,1.3c-1.31-2.26-3.05-3.69-6.19-3.69-2.56,0-4.91,1.15-6.67,2.91-2.07,2.14-3.38,5.14-3.38,8.21,0,4.18,2.8,6.79,6.67,6.79,2.86,0,4.78-1.15,6.61-2.94l1.61,1.61c-1.98,2.01-4.51,3.63-8.35,3.63-5.03,0-9.08-3.41-9.08-8.99Z"></path>
    <path class="cls-14" d="M342.36,137.72h2.35l-4.24,16.02h-2.35l4.24-16.02ZM343.82,131.58h2.68l-.7,2.63h-2.68l.7-2.63Z"></path>
    <path class="cls-14" d="M349.86,137.72h2.35l-.67,2.6c1.4-1.64,3.08-2.94,5.48-2.94,3.05,0,5,1.92,5,4.96,0,.74-.18,1.64-.37,2.48l-2.35,8.92h-2.35l2.41-9.08c.12-.53.21-1.27.21-1.8,0-2.11-1.31-3.35-3.5-3.35-2.44,0-4.88,2.14-5.7,5.18l-2.38,9.05h-2.35l4.21-16.02Z"></path>
    <path class="cls-14" d="M374.85,145.31h-5.76l-2.22,8.43h-2.41l5.73-21.69h7.68c2.68,0,4.69.68,6,1.98.92.96,1.4,2.26,1.4,3.75,0,1.89-.7,3.47-1.89,4.71-1.4,1.42-3.66,2.23-5.91,2.6l4.39,8.65h-2.77l-4.24-8.43ZM375.46,143.11c2.8,0,4.88-.77,6.06-1.98.82-.87,1.28-1.89,1.28-3.16,0-.93-.3-1.77-.88-2.35-.82-.84-2.16-1.3-4.17-1.3h-5.73l-2.35,8.8h5.79Z"></path>
    <path class="cls-14" d="M394.11,143.82l6-6.1h2.96l-8.01,7.93,4.11,8.09h-2.59l-3.14-6.51-6.46,6.51h-2.96l8.47-8.31-3.96-7.72h2.59l2.99,6.1Z"></path>
    <path class="cls-14" d="M417.46,132.05h6.67c2.68,0,4.72.65,6.09,2.01.98,1.02,1.52,2.36,1.52,4.03,0,2.08-.73,3.78-2.01,5.08-1.8,1.86-4.81,2.85-8.5,2.85h-5.06l-2.04,7.72h-2.41l5.73-21.69ZM424.04,134.31h-4.78l-2.5,9.54h4.6c2.99,0,5.24-.74,6.55-2.08.88-.9,1.34-2.08,1.34-3.53,0-1.05-.3-1.89-.98-2.6-.88-.9-2.32-1.33-4.24-1.33Z"></path>
    <path class="cls-14" d="M432.21,146.92c0-2.54,1.07-4.96,2.83-6.73,1.68-1.7,3.96-2.82,6.43-2.82,4.33,0,7.19,3.01,7.19,7.16,0,2.54-1.1,4.96-2.83,6.76-1.68,1.71-3.99,2.82-6.46,2.82-4.33,0-7.16-3.04-7.16-7.19ZM444,149.99c1.4-1.42,2.25-3.41,2.25-5.36,0-3.25-2.01-5.14-4.94-5.14-1.71,0-3.29.81-4.48,2.01-1.37,1.39-2.25,3.38-2.25,5.36,0,3.25,2.01,5.11,4.94,5.11,1.71,0,3.29-.77,4.48-1.98Z"></path>
    <path class="cls-14" d="M454.55,137.72h2.35l-1.07,4.18c1.92-2.79,4.36-4.65,7.5-4.46l-.67,2.57h-.15c-3.44,0-6.86,2.57-8.14,7.41l-1.68,6.32h-2.35l4.21-16.02Z"></path>
    <path class="cls-14" d="M464.09,150.86c0-.56.09-1.18.21-1.67l2.47-9.36h-2.16l.55-2.11h2.19l1.28-4.83h2.32l-1.28,4.83h4.97l-.55,2.11h-4.97l-2.44,9.23c-.06.37-.12.84-.12,1.18,0,1.12.82,1.64,2.16,1.64.7,0,1.46-.15,2.29-.5l-.58,2.17c-.82.34-1.58.46-2.5.46-2.25,0-3.84-1.08-3.84-3.16Z"></path>
    <path class="cls-14" d="M478.78,139.83h-2.16l.55-2.11h2.16l.49-1.86c.4-1.52.94-2.57,1.74-3.38.95-.96,2.19-1.42,3.69-1.42,1.22,0,2.32.25,3.14.68l-.55,2.04c-.91-.43-1.68-.65-2.59-.65-1.49,0-2.62.93-3.17,3.04l-.4,1.55h5.15l-.58,2.11h-5.12l-3.69,13.91h-2.35l3.69-13.91Z"></path>
    <path class="cls-14" d="M486,146.92c0-2.54,1.07-4.96,2.83-6.73,1.68-1.7,3.96-2.82,6.43-2.82,4.33,0,7.19,3.01,7.19,7.16,0,2.54-1.1,4.96-2.83,6.76-1.68,1.71-3.99,2.82-6.46,2.82-4.33,0-7.16-3.04-7.16-7.19ZM497.8,149.99c1.4-1.42,2.25-3.41,2.25-5.36,0-3.25-2.01-5.14-4.94-5.14-1.71,0-3.29.81-4.48,2.01-1.37,1.39-2.25,3.38-2.25,5.36,0,3.25,2.01,5.11,4.94,5.11,1.71,0,3.29-.77,4.48-1.98Z"></path>
    <path class="cls-14" d="M510.32,131.12h2.35l-5.97,22.62h-2.35l5.97-22.62Z"></path>
    <path class="cls-14" d="M516.33,137.72h2.35l-4.24,16.02h-2.35l4.24-16.02ZM517.79,131.58h2.68l-.7,2.63h-2.68l.7-2.63Z"></path>
    <path class="cls-14" d="M520.6,146.92c0-2.54,1.07-4.96,2.83-6.73,1.68-1.7,3.96-2.82,6.43-2.82,4.33,0,7.19,3.01,7.19,7.16,0,2.54-1.1,4.96-2.83,6.76-1.68,1.71-3.99,2.82-6.46,2.82-4.33,0-7.16-3.04-7.16-7.19ZM532.39,149.99c1.4-1.42,2.25-3.41,2.25-5.36,0-3.25-2.01-5.14-4.94-5.14-1.71,0-3.29.81-4.48,2.01-1.37,1.39-2.25,3.38-2.25,5.36,0,3.25,2.01,5.11,4.94,5.11,1.71,0,3.29-.77,4.48-1.98Z"></path>
    <path class="cls-14" d="M549.64,145.16c0-3.66,1.55-7.16,4.02-9.67,2.29-2.32,5.39-3.81,8.78-3.81,3.96,0,6.61,1.95,8.04,4.65l-2.07,1.3c-1.31-2.26-3.05-3.69-6.19-3.69-2.56,0-4.91,1.15-6.67,2.91-2.07,2.14-3.38,5.14-3.38,8.21,0,4.18,2.8,6.79,6.67,6.79,2.86,0,4.78-1.15,6.61-2.94l1.61,1.61c-1.98,2.01-4.51,3.63-8.35,3.63-5.03,0-9.08-3.41-9.08-8.99Z"></path>
    <path class="cls-14" d="M570.34,146.92c0-2.54,1.07-4.96,2.83-6.73,1.68-1.7,3.96-2.82,6.43-2.82,4.33,0,7.19,3.01,7.19,7.16,0,2.54-1.1,4.96-2.83,6.76-1.68,1.71-3.99,2.82-6.46,2.82-4.33,0-7.16-3.04-7.16-7.19ZM582.13,149.99c1.4-1.42,2.25-3.41,2.25-5.36,0-3.25-2.01-5.14-4.94-5.14-1.71,0-3.29.81-4.48,2.01-1.37,1.39-2.25,3.38-2.25,5.36,0,3.25,2.01,5.11,4.94,5.11,1.71,0,3.29-.77,4.48-1.98Z"></path>
    <path class="cls-14" d="M592.67,137.72h2.35l-.67,2.6c1.43-1.64,2.89-2.94,5.24-2.94,2.62,0,4.05,1.74,4.48,3.63,1.4-2.2,3.54-3.63,6.34-3.63s4.81,1.98,4.81,4.96c0,.74-.24,1.64-.46,2.48l-2.32,8.92h-2.35l2.38-9.08c.15-.53.24-1.27.24-1.8,0-2.08-1.25-3.35-3.26-3.35-2.32,0-4.69,2.2-5.45,5.18l-2.38,9.05h-2.32l2.38-9.08c.15-.53.24-1.27.24-1.8,0-2.08-1.25-3.35-3.29-3.35-2.32,0-4.66,2.2-5.45,5.18l-2.38,9.05h-2.35l4.21-16.02Z"></path>
    <path class="cls-14" d="M620.47,150.15l-2.25,8.55h-2.35l5.51-20.98h2.35l-.73,2.76c1.52-1.77,3.44-3.1,5.97-3.1,3.57,0,6.25,2.7,6.25,6.79,0,2.94-1.16,5.55-2.93,7.34-1.62,1.64-3.72,2.6-5.91,2.6-3.23,0-5.03-1.86-5.91-3.97ZM630.5,150.15c1.4-1.46,2.25-3.53,2.25-5.76,0-2.97-1.8-4.9-4.45-4.9-1.68,0-3.38.81-4.66,2.14-1.4,1.43-2.35,3.35-2.35,5.39,0,2.79,1.98,4.99,4.88,4.99,1.68,0,3.2-.74,4.33-1.86Z"></path>
    <path class="cls-14" d="M637.02,149.65c0-1.55.55-2.85,1.49-3.81,1.25-1.27,3.2-1.98,5.52-1.98,2.1,0,4.08.43,5.61.87l.09-.37c.12-.46.21-1.05.21-1.49,0-2.08-1.4-3.25-4.27-3.25-1.68,0-3.05.34-4.45.84l-.4-1.98c1.55-.59,3.17-.96,5.21-.96,3.96,0,6.19,1.86,6.19,4.96,0,.68-.12,1.46-.33,2.2l-2.38,9.08h-2.29l.67-2.51c-1.46,1.7-3.38,2.85-5.88,2.85-2.65,0-5-1.58-5-4.43ZM648.94,147.45l.3-1.12c-1.37-.4-3.17-.71-5.12-.71-1.62,0-2.89.5-3.72,1.33-.67.65-1,1.49-1,2.42,0,1.7,1.31,2.85,3.35,2.85,2.65,0,5.42-1.95,6.19-4.77Z"></path>
    <path class="cls-14" d="M658.42,137.72h2.35l-.67,2.6c1.4-1.64,3.08-2.94,5.48-2.94,3.05,0,5,1.92,5,4.96,0,.74-.18,1.64-.37,2.48l-2.35,8.92h-2.35l2.41-9.08c.12-.53.21-1.27.21-1.8,0-2.11-1.31-3.35-3.5-3.35-2.44,0-4.88,2.14-5.7,5.18l-2.38,9.05h-2.35l4.21-16.02Z"></path>
    <path class="cls-14" d="M674.3,137.72h2.47l2.16,13.36,8.44-13.36h2.68l-10.79,16.55c-2.22,3.32-4.05,4.52-6.46,4.52-1.34,0-2.44-.4-3.44-1.12l1.28-1.77c.64.5,1.49.84,2.41.84,1.34,0,2.53-.74,4.11-3.01l-2.86-16.02Z"></path>
  </g>
  <g>
    <path class="cls-6" d="M186.48,71.72v-.25c0-24.7,18.46-45.16,44.16-45.16,15.84,0,25.33,5.61,34.06,13.85l-6.74,7.24c-7.36-6.99-15.59-11.98-27.45-11.98-19.34,0-33.81,15.72-33.81,35.81v.25c0,20.21,14.6,36.05,33.81,36.05,11.98,0,19.84-4.62,28.2-12.6l6.49,6.36c-9.11,9.23-19.09,15.35-34.93,15.35-25.2,0-43.79-19.84-43.79-44.91Z"></path>
    <path class="cls-6" d="M282.54,27.81h9.86v87.33h-9.86V27.81Z"></path>
    <path class="cls-6" d="M316.72,27.81h9.23l55.02,69.99V27.81h9.61v87.33h-7.86l-56.39-71.61v71.61h-9.61V27.81Z"></path>
    <path class="cls-6" d="M414.03,27.81h30.32c27.45,0,46.41,18.84,46.41,43.42v.25c0,24.58-18.96,43.67-46.41,43.67h-30.32V27.81ZM423.88,36.92v69.12h20.46c22.08,0,36.18-14.97,36.18-34.31v-.25c0-19.34-14.1-34.56-36.18-34.56h-20.46Z"></path>
    <path class="cls-6" d="M506.47,71.72v-.25c0-24.08,18.09-45.16,44.66-45.16s44.41,20.83,44.41,44.91v.25c0,24.08-18.09,45.16-44.66,45.16s-44.41-20.83-44.41-44.91ZM585.32,71.72v-.25c0-19.84-14.47-36.05-34.43-36.05s-34.18,15.97-34.18,35.81v.25c0,19.84,14.47,36.05,34.43,36.05s34.18-15.97,34.18-35.8Z"></path>
    <path class="cls-6" d="M615.13,27.81h9.98l31.81,47.66,31.81-47.66h9.98v87.33h-9.86V44.4l-31.81,46.78h-.5l-31.81-46.66v70.61h-9.61V27.81Z"></path>
    <path class="cls-6" d="M722.17,27.81h63.13v8.98h-53.27v29.82h47.66v8.98h-47.66v30.57h53.89v8.98h-63.75V27.81Z"></path>
  </g>
  <g>
    <polygon class="cls-5" points="20.8 18.08 53.09 21.75 46.36 1.98 0 15.72 20.8 18.08"></polygon>
    <polygon class="cls-2" points="57.68 22.12 104.28 22.45 51.13 2.88 56.25 17.92 57.68 22.12"></polygon>
    <polygon class="cls-4" points="87.29 46.35 109.65 64.19 113.99 26.74 62.25 26.38 87.29 46.35"></polygon>
    <polygon class="cls-11" points="157.95 82.21 117.86 30.06 114.06 62.79 113.6 66.77 157.95 82.21"></polygon>
    <polygon class="cls-9" points="115 71.73 124.93 96.35 134.07 119.04 145.31 119.04 160.96 87.73 115 71.73"></polygon>
    <polygon class="cls-11" points="150.03 119.04 166.31 119.04 162.77 93.56 150.03 119.04"></polygon>
    <polygon class="cls-2" points="0 0 0 11.31 36.66 .62 0 0"></polygon>
    <polygon class="cls-13" points="2.6 64.99 40.78 80.88 52.84 29.19 5.97 62.59 2.6 64.99"></polygon>
    <polygon class="cls-7" points="74.83 41.81 57.46 27.96 45.09 80.99 106.55 67.12 74.83 41.81"></polygon>
    <polygon class="cls-12" points="79.48 119.04 129.52 119.04 110.83 72.68 79.48 119.04"></polygon>
    <polygon class="cls-10" points="93.31 74.44 45.82 85.15 69.76 119.04 74.38 119.04 106.57 71.45 93.31 74.44"></polygon>
    <polygon class="cls-8" points="14.13 21.57 0 19.97 0 61.66 50.45 25.7 14.13 21.57"></polygon>
    <polygon class="cls-1" points="15.92 119.04 64.59 119.04 42.14 87.26 15.92 119.04"></polygon>
    <polygon class="cls-3" points="0 119.04 10.44 119.04 38.83 84.64 0 68.48 0 119.04"></polygon>
  </g>
</svg>