<?xml version="1.0" encoding="UTF-8"?>
<svg id="Layer_1" data-name="Layer 1" xmlns="http://www.w3.org/2000/svg" viewBox="0 0 2222.54 2144.11">
  <defs>
    <style>
      .cls-1 {
        fill: #fff;
      }
    </style>
  </defs>
  <path class="cls-1" d="M324.54,294.2l94.37,92.83c-20.19,25.56-42.91,49.11-62.47,75.19-195.79,261.05-200.8,624.75-10.8,890.46,175.44,245.35,477.27,361.67,774.01,296.75,137.72-30.13,261.45-98.18,362.89-195.24l94.7,92.86c-129.13,129.45-301.93,216.61-483.3,244.67C497.26,1884.04-11.63,1370.75,81.6,775.39c28.41-181.41,114.12-351.2,242.94-481.19Z"/>
  <path class="cls-1" d="M1815.4,1755.9c-2.33-3.45,35.09-43.02,39.82-48.89,301.51-373.77,186.25-927.41-239.91-1145.99-284.97-146.16-642.44-92.11-869.04,133.01l-92.73-95.34c-.56-3.62,37.57-36.46,43.7-41.66,409.53-346.99,1032.21-256.42,1320.86,195.2,194.68,304.59,184.35,701.92-26.05,995.61-9.73,13.58-78.14,101.91-87.8,101.86l-88.85-93.79Z"/>
  <path class="cls-1" d="M433.23,398.07l91.99,94.93c-55.72,59.46-102.06,128.53-130.86,205.15-120.62,320.83,47.51,679.44,370.48,789.33,212.08,72.16,454.3,16.84,613.43-139.39l94.96,92.97c-104.67,106.1-249.85,179.04-397.54,202.42-563.44,89.19-1008.4-462.83-805.96-995.96,10.13-26.67,26.64-67.95,41.61-88.93,5.38-7.53,7.13-14.2,8.46-16.89,1.25-2.53,3.58-6.41,6.36-9.75,15.42-18.54,30.38-46.83,46.32-67.68,12.52-16.37,40.25-53.43,55.75-64.25,1.69-1.18,2.09-2.73,5.01-1.94Z"/>
  <path class="cls-1" d="M1226.86,494.64c528.41-28.13,912.15,478.49,740.45,980.45-33.98,99.36-92.62,195.26-167.31,268.82-11.89-8.72-91.46-87.81-90.46-94.48,79.42-87.21,137.45-193.46,157.16-310.96,71.84-428.26-301.86-789.28-727.44-695.44-107.94,23.8-207.58,79.03-287.25,154.88l-94.58-93.13c-.53-3.06,39.09-37.84,44.91-42.67,116.72-96.92,272.23-159.36,424.53-167.47Z"/>
  <path class="cls-1" d="M534.67,506.27c2.3-.61,4.06.01,5.69,1.67l88.7,89.4c-12.62,19.47-29.18,35.98-42.57,54.93-103.15,146.04-110.37,342.69-18.83,496.4,125.05,209.99,403.68,286.55,616.96,161.73,31.62-18.51,58.82-42.13,87.65-64.42l92.12,90.09c2.06,4.01-10.4,14.59-14.07,18.04-168.74,158.94-437.52,194.21-645.77,95.66-327.13-154.81-439.96-577.43-228.91-874.35,7.36-10.35,51.25-67.11,59.03-69.16Z"/>
  <path class="cls-1" d="M1695.99,1636.86c-1.25.96.31,4.79-4.68,3.18l-89.87-94.69c54.71-59.84,94.55-129.71,112.86-209.26,97.14-421.92-384.07-726.25-725.97-459.97-6.08,4.73-27.66,27.25-33.64,25.73l-90.51-91.82c-1.57-4.47,46.55-43.59,53.3-48.76,415.16-317.66,1011.25,34.94,937.46,551.46-14.29,100.05-77.08,260.95-158.95,324.13Z"/>
  <path class="cls-1" d="M640.54,610.2l94.51,93.14c-11.13,18.34-26.43,33.61-37.4,52.1-57.24,96.49-60.03,211.89-4.73,309.95,97.45,172.81,329.08,204.83,473.34,70.74l92.07,91.96c2.94,5.8-5.87,12.07-10.01,16.01-120.95,115.17-318.9,140.33-469.77,73.66-276.42-122.15-351.23-491.22-138.01-707.57Z"/>
  <path class="cls-1" d="M1240.86,792.64c239.72-14.59,438.06,151.65,468.16,388.66,16.2,127.54-28.92,261.56-119.03,352.61l-94.58-93.13c35.97-41.8,62.8-88.29,74.87-142.71,39.7-178.86-84.5-350.95-266.04-369.99-87.81-9.21-177.58,22.48-241.97,81.89l-92.79-93.32,2.65-6.74c73.91-67.26,168-111.14,268.72-117.27Z"/>
  <path class="cls-1" d="M744.53,716.17c2.24-.69,4.25.19,5.84,1.78l88.69,89.51c.86,3.38-17.86,29.36-21.21,36.16-18.04,36.63-21.73,75.93-10.46,115.3,31.92,111.44,168.9,146.25,254.9,71.48l92.1,91.66c2.18,3.73-3.38,7.42-6.07,10.03-63.69,61.6-168.15,82.81-253.06,64.97-192.33-40.41-289.67-264.19-186.82-432.86,3.56-5.84,33.22-47.16,36.1-48.04Z"/>
  <path class="cls-1" d="M1075.3,1018.12c9.92-5.47,17.61-14.58,27.34-21.7,163.58-119.67,398.35-35.33,449.64,159.62,23.42,89.02,1.58,202.75-64.96,269.06-1.38,1.38-4,5.36-6.05,4.03l-89.72-92.57c-.75-3.11,17.62-28.08,20.81-34.41,42.64-84.73.44-188.72-89.17-219.01-55.92-18.9-110.7-3.77-156.63,30.71-25.38-28.06-59.33-54.09-83.34-82.74-1.74-2.08-9.45-10.87-7.91-12.98Z"/>
  <path class="cls-1" d="M852.27,820.1l197.08,198.96c-14.98,18.43-44,30.4-67.64,34.44-133.08,22.71-218.46-133.98-129.44-233.4Z"/>
  <path class="cls-1" d="M1256.86,1090.64c128.33-13.21,206.62,136.1,121.43,233.21l-198.98-198.8c21.86-18.23,48.89-31.46,77.55-34.41Z"/>
</svg>